<svg id="图层_1" data-name="图层 1" xmlns="http://www.w3.org/2000/svg" viewBox="0 0 140.47 165.65"><defs><style>.cls-1{fill:#3e3a39;}</style></defs><title>y</title><path class="cls-1" d="M312.15,388.64h0a0,0,0,0,1,0,0v171.5a26.93,26.93,0,0,1-26.93,26.93h0a0,0,0,0,1,0,0V415.57A26.93,26.93,0,0,1,312.15,388.64Z" transform="translate(64.47 -488.99) rotate(30)"/><path class="cls-1" d="M257.85,404.15h0a26.93,26.93,0,0,1,26.93,26.93v86.47a0,0,0,0,1,0,0h0a26.93,26.93,0,0,1-26.93-26.93V404.15A0,0,0,0,1,257.85,404.15Z" transform="translate(47.3 -478.92) rotate(30)"/><path class="cls-1" d="M225.54,407h0a26.93,26.93,0,0,1,26.93,26.93v43.94a0,0,0,0,1,0,0h0a26.93,26.93,0,0,1-26.93-26.93V407A0,0,0,0,1,225.54,407Z" transform="translate(33.76 -465.24) rotate(30)"/></svg>